<svg width="125" height="35" viewBox="0 0 125 35" fill="none" xmlns="http://www.w3.org/2000/svg">
<path d="M13.8226 27.2249L10.68 27.4111L8.30737 22.7077C8.24914 22.5766 8.13418 22.3395 7.96249 21.9965C7.80656 21.6357 7.62301 21.2345 7.41183 20.7929C7.21642 20.3335 7.01214 19.8663 6.79898 19.3911C6.58581 18.916 6.3919 18.4818 6.21722 18.0885C6.24304 18.5242 6.27283 19.0271 6.30659 19.5969C6.34035 20.1668 6.3746 20.745 6.40936 21.3316C6.44411 21.9183 6.4685 22.4718 6.48252 22.9924C6.5133 23.512 6.52925 23.9231 6.53036 24.2258L6.60722 27.6524L2.78582 27.8788L2.78311 10.7989L6.3531 10.5874L10.8559 20.16C10.9911 20.4547 11.1673 20.8732 11.3844 21.4153C11.6173 21.9397 11.8448 22.5149 12.0669 23.1409C12.2146 22.5099 12.3647 21.9207 12.5173 21.3734C12.6856 20.8084 12.8274 20.3627 12.9426 20.0363L16.2837 9.99907L19.7783 9.79204L21.7923 26.7528L17.8954 26.9836L17.542 23.5734C17.5064 23.256 17.4648 22.838 17.4173 22.3194C17.3865 21.7998 17.3542 21.2551 17.3205 20.6852C17.2857 20.0986 17.2515 19.5204 17.2177 18.9505C17.1997 18.3629 17.1783 17.8596 17.1535 17.4406C17.0402 17.8005 16.9132 18.2117 16.7724 18.6741C16.6474 19.1188 16.5135 19.5557 16.3707 19.9846C16.2279 20.4136 16.092 20.8169 15.963 21.1945C15.833 21.5554 15.7321 21.8389 15.6602 22.045L13.8226 27.2249Z" fill="#F0283C"/>
<path d="M32.9592 9.396C34.2847 9.34795 35.433 9.50793 36.404 9.87595C37.375 10.244 38.1842 10.7859 38.8318 11.5016C39.4794 12.2174 39.9653 13.107 40.2895 14.1705C40.6298 15.2167 40.824 16.4025 40.8721 17.728C40.9195 19.0368 40.7952 20.2425 40.4992 21.3453C40.2193 22.4307 39.7662 23.3712 39.1398 24.1668C38.5134 24.9623 37.7131 25.5962 36.739 26.0683C35.7642 26.5237 34.6057 26.7757 33.2634 26.8244C31.9379 26.8724 30.7818 26.7295 29.7953 26.3957C28.8249 26.0444 28.0162 25.5193 27.3692 24.8203C26.7216 24.1046 26.228 23.232 25.8882 22.2027C25.5653 21.1727 25.3795 19.9866 25.3308 18.6443C25.2834 17.3355 25.3993 16.13 25.6785 15.0279C25.9739 13.9083 26.4346 12.9423 27.0603 12.13C27.6855 11.3009 28.4852 10.6503 29.4593 10.1781C30.4502 9.70538 31.6168 9.44467 32.9592 9.396ZM32.7136 12.3535C31.6229 12.393 30.8445 12.9337 30.3782 13.9754C29.9281 14.9998 29.7356 16.4097 29.8007 18.205C29.8318 19.0607 29.9104 19.8391 30.0366 20.5402C30.1796 21.2406 30.3864 21.8464 30.6569 22.3574C30.9436 22.851 31.3187 23.2323 31.782 23.5011C32.2454 23.7699 32.8211 23.8918 33.509 23.8669C34.5996 23.8273 35.3706 23.3122 35.8219 22.3214C36.2732 21.3305 36.4663 19.9375 36.4012 18.1421C36.3702 17.2864 36.2829 16.4999 36.1393 15.7827C36.0124 15.0648 35.8054 14.4507 35.518 13.9403C35.2469 13.4125 34.8796 13.0142 34.4163 12.7454C33.9523 12.4598 33.3847 12.3291 32.7136 12.3535Z" fill="#F0283C"/>
<path d="M53.1422 25.8434L49.6168 25.8984L42.9799 8.94966L47.3615 8.88131L49.7339 15.6451C50.0856 16.6639 50.3945 17.6246 50.6605 18.5272C50.9261 19.413 51.1479 20.1736 51.3257 20.8089C51.4837 20.1684 51.6817 19.4097 51.9199 18.5328C52.1581 17.6559 52.4537 16.6857 52.8065 15.6223L55.0168 8.76191L59.2473 8.69592L53.1422 25.8434Z" fill="#F0283C"/>
<path d="M61.9597 8.95055L66.1152 8.95246L66.1074 26.0026L61.9518 26.0007L61.9597 8.95055Z" fill="#F0283C"/>
<path d="M70.312 8.97256L81.1655 9.13687L81.1194 12.1839L74.4209 12.0825L74.3657 15.7339L79.9309 15.8181L79.4071 18.8075L74.3203 18.7305L74.2551 23.0367L81.3061 23.1434L81.2599 26.1904L70.054 26.0208L70.312 8.97256Z" fill="#F0283C"/>
<path d="M85.1702 8.99587L96.0193 9.34436L95.9222 12.365L89.2265 12.1499L89.1012 16.0516L94.7145 16.2319L94.1149 19.2111L89.005 19.047L88.7762 26.1707L84.6228 26.0372L85.1702 8.99587Z" fill="#F0283C"/>
<path d="M99.4853 10.0136L103.636 10.2061L102.847 27.2379L98.6956 27.0455L99.4853 10.0136Z" fill="#F0283C"/>
<path d="M106.656 27.9521L112.488 19.3559L108.214 10.9658L112.739 11.2463L114.86 15.6928C114.92 15.8142 114.986 15.9781 115.057 16.1844C115.146 16.3749 115.243 16.5744 115.348 16.7828C115.477 16.6057 115.589 16.4276 115.684 16.2485C115.796 16.0704 115.898 15.9169 115.99 15.788L118.671 11.6142L123.196 11.8947L117.891 19.7161L122.618 28.9418L118.043 28.6581L115.54 23.4562C115.464 23.317 115.382 23.1521 115.293 22.9615C115.205 22.7542 115.108 22.5463 115.003 22.338L114.358 23.383L111.231 28.2357L106.656 27.9521Z" fill="#F0283C"/>
</svg>
